<?xml version="1.0" standalone="no"?>
<!DOCTYPE svg PUBLIC "-//W3C//DTD SVG 20010904//EN"
 "http://www.w3.org/TR/2001/REC-SVG-20010904/DTD/svg10.dtd">
<svg version="1.0" xmlns="http://www.w3.org/2000/svg"
 width="3333.000000pt" height="1067.000000pt" viewBox="0 0 3333.000000 1067.000000"
 preserveAspectRatio="xMidYMid meet">

<g transform="translate(0.000000,1067.000000) scale(0.100000,-0.100000)"
fill="#000000" stroke="none">
<path d="M14940 10654 c-1088 -28 -1562 -55 -2039 -115 -3051 -384 -6648
-1485 -10261 -3142 -288 -132 -458 -212 -1077 -507 l-302 -144 -83 -116 c-96
-136 -635 -872 -790 -1080 -59 -80 -147 -193 -195 -252 -121 -149 -152 -201
-163 -279 -23 -156 -32 -685 -27 -1454 7 -952 21 -1250 63 -1296 55 -61 718
-218 2679 -633 1249 -264 1714 -356 1803 -356 112 1 165 46 195 165 31 120 41
267 67 990 17 465 36 603 109 817 114 330 258 597 455 842 106 132 324 350
456 456 307 246 734 463 1070 545 168 40 290 47 746 42 473 -5 492 -7 739 -90
906 -306 1557 -962 1844 -1860 60 -187 75 -339 91 -932 36 -1321 40 -1369 95
-1429 63 -68 82 -68 2228 -73 l1909 -4 -179 203 c-98 112 -196 224 -218 251
l-39 47 -1613 0 -1613 0 0 53 c0 118 -30 1026 -40 1207 -24 432 -63 662 -159
942 -166 480 -427 892 -806 1272 -521 522 -1114 822 -1855 938 -127 19 -183
22 -460 23 -322 0 -406 -7 -635 -51 -391 -75 -820 -244 -1115 -439 -377 -249
-891 -775 -1095 -1119 -312 -528 -474 -1174 -475 -1891 0 -176 -11 -271 -35
-294 -14 -15 -50 -9 -377 57 -840 169 -3074 645 -3248 692 -29 8 -44 18 -50
36 -23 58 -30 335 -30 1111 l0 822 43 5 c23 3 130 13 237 21 1071 83 1818 293
2375 666 429 287 763 747 816 1122 10 70 9 91 -5 146 -17 67 -50 120 -90 147
-48 31 -144 36 -745 43 l-604 6 219 104 c996 475 2002 895 3179 1328 2832
1043 5271 1658 7345 1852 629 59 1009 76 1760 75 1056 0 1748 -48 2267 -155
253 -52 330 -83 666 -266 641 -350 1699 -941 3287 -1836 l1225 -691 1675 -188
c1781 -199 2336 -262 3650 -414 1075 -123 1298 -151 1338 -165 42 -14 62 -54
62 -121 0 -106 71 -368 167 -613 135 -349 281 -574 524 -810 407 -395 970
-641 1683 -735 313 -41 561 -43 676 -5 121 40 185 169 149 300 -18 64 -99 136
-184 163 -92 29 -186 42 -313 42 -73 0 -104 4 -106 13 -6 19 -47 258 -52 300
-3 22 -21 88 -40 149 -19 60 -34 126 -34 145 0 34 1 35 31 29 46 -9 192 -69
374 -153 388 -180 545 -286 633 -426 89 -142 104 -217 111 -547 l6 -265 248
-3 249 -2 -4 367 c-4 339 -6 374 -26 447 -29 104 -60 170 -123 261 -61 89
-245 269 -354 347 -279 198 -627 368 -970 473 -451 138 -460 143 -728 378
-242 211 -414 327 -702 473 -308 155 -528 225 -845 269 -673 92 -1858 230
-5074 591 l-1850 208 -845 474 c-465 261 -1264 709 -1776 997 -1155 649 -1340
751 -1640 908 -536 281 -866 406 -1240 470 -188 33 -329 49 -780 88 -335 30
-393 32 -840 34 -264 1 -532 0 -595 -1z"/>
<path d="M14205 9860 c-338 -13 -586 -29 -860 -56 -1495 -149 -3131 -493
-4950 -1040 -977 -294 -1163 -379 -1321 -599 -203 -285 -189 -573 40 -833 119
-136 199 -187 348 -222 243 -57 396 -61 2370 -67 l1787 -5 27 44 c91 145 146
220 214 293 78 82 107 122 96 132 -19 19 -986 38 -2676 53 -1613 14 -1777 27
-1811 139 -24 82 25 162 144 230 147 84 566 227 1171 400 1083 310 2601 684
2872 707 l70 7 32 -87 c27 -75 142 -432 306 -957 l46 -146 158 -6 c220 -10
402 -9 402 2 0 5 -65 206 -146 447 -206 622 -254 799 -223 829 33 32 483 97
1154 164 540 55 1077 76 1760 68 776 -9 1327 -47 1773 -122 244 -42 404 -106
827 -335 646 -349 2295 -1284 2295 -1302 0 -33 -391 -38 -3780 -48 -3817 -11
-4128 -16 -4094 -71 13 -22 -61 -141 -171 -274 -149 -179 -220 -286 -305 -460
-232 -473 -279 -986 -132 -1431 257 -777 1174 -2115 2613 -3815 129 -151 324
-382 434 -512 l200 -236 3970 3 c3955 3 4147 5 4390 36 186 25 225 52 244 167
14 85 29 546 41 1268 12 692 18 752 87 970 154 481 383 845 755 1201 358 342
884 628 1323 717 105 21 133 22 590 22 538 0 545 -1 778 -75 164 -53 290 -105
470 -197 630 -322 1120 -870 1366 -1531 99 -264 120 -419 141 -1017 28 -829
38 -919 116 -999 53 -54 81 -59 379 -64 1050 -16 2367 206 3195 538 58 23 186
81 285 129 240 117 278 155 310 309 12 54 15 195 15 735 l0 667 -1229 0 -1228
0 -82 -86 c-79 -82 -121 -147 -121 -189 0 -42 42 -107 121 -189 l82 -86 978 0
979 0 0 -333 0 -334 -147 -66 c-189 -84 -268 -115 -423 -165 -577 -186 -1395
-331 -2100 -372 -294 -17 -555 -29 -558 -26 -1 2 -9 147 -17 322 -24 507 -44
706 -100 989 -96 482 -281 890 -571 1262 -637 814 -1468 1268 -2444 1334 -623
41 -1335 -129 -1854 -445 -449 -274 -922 -748 -1193 -1196 -189 -311 -339
-721 -403 -1097 -45 -264 -52 -388 -57 -1061 l-5 -643 -222 5 c-121 4 -453 9
-737 12 l-516 6 -6 1492 c-4 820 -7 1862 -7 2316 0 454 -3 1166 -7 1583 l-6
757 -81 59 c-158 114 -1007 600 -2524 1445 -1206 671 -1488 799 -1902 860
-121 18 -470 51 -710 67 -201 13 -1727 20 -2035 9z m6751 -3737 c-4 -505 -9
-1803 -12 -2884 l-6 -1967 -2037 -6 c-1120 -3 -2425 -8 -2901 -11 l-865 -5
-230 272 c-1019 1203 -1636 2001 -2148 2780 -407 617 -617 1036 -683 1359 -43
215 30 593 171 884 78 161 125 225 264 368 l124 127 4165 0 4164 0 -6 -917z"/>
<path d="M12750 5480 l0 -270 375 0 375 0 0 270 0 270 -375 0 -375 0 0 -270z"/>
<path d="M7407 4780 c-605 -70 -1117 -305 -1512 -695 -213 -211 -369 -440
-486 -711 -147 -343 -253 -776 -206 -839 15 -19 27 -20 410 -20 218 0 399 3
403 7 4 4 20 72 35 150 67 336 196 576 433 805 253 245 557 396 894 444 119
17 382 6 494 -20 381 -88 701 -290 917 -578 142 -189 223 -373 292 -665 l33
-138 414 0 414 0 -6 88 c-41 524 -279 1033 -676 1446 -268 279 -571 464 -999
610 -284 97 -619 143 -854 116z"/>
<path d="M26160 4784 c-404 -48 -659 -119 -955 -266 -440 -219 -805 -577
-1022 -1003 -143 -280 -269 -675 -280 -880 -5 -78 -3 -92 12 -105 15 -12 68
-16 284 -18 146 -2 325 -1 397 3 l132 7 26 136 c15 76 43 184 62 242 161 485
612 877 1153 1001 112 26 375 36 492 20 515 -74 947 -376 1172 -819 70 -137
100 -222 143 -402 19 -80 37 -153 40 -162 5 -17 34 -18 420 -18 l415 0 -7 68
c-25 283 -108 579 -234 837 -152 312 -385 603 -664 828 -335 269 -699 429
-1156 506 -119 20 -355 34 -430 25z"/>
<path d="M7460 3340 c-429 -44 -742 -328 -831 -755 -16 -77 -16 -291 0 -374
94 -485 498 -794 1000 -768 181 10 308 50 448 143 98 65 224 186 280 269 218
323 213 749 -13 1085 -59 88 -200 223 -285 273 -171 100 -395 148 -599 127z"/>
<path d="M26163 3339 c-376 -36 -685 -283 -796 -634 -37 -118 -51 -231 -44
-359 14 -251 100 -455 262 -622 127 -130 268 -210 452 -256 126 -32 341 -32
467 0 306 77 561 301 665 584 46 123 55 179 55 323 0 155 -17 241 -74 379
-167 401 -550 628 -987 585z"/>
<path d="M5175 2223 c2 -16 12 -77 21 -138 37 -253 108 -475 234 -730 132
-269 283 -479 495 -690 197 -197 387 -328 649 -448 327 -150 565 -197 987
-197 564 0 874 93 1334 401 497 332 825 796 971 1374 19 73 84 424 84 453 0 1
-192 1 -427 0 l-427 -3 -17 -110 c-30 -196 -73 -319 -165 -477 -203 -346 -520
-619 -839 -723 -155 -50 -291 -69 -505 -69 -259 0 -428 29 -609 104 -318 131
-646 458 -816 813 -63 132 -85 208 -95 335 -3 51 -11 97 -17 103 -24 24 -106
29 -475 29 l-387 0 4 -27z"/>
<path d="M23885 2198 c52 -394 178 -747 390 -1094 142 -232 342 -457 527 -595
259 -191 610 -368 863 -434 298 -77 805 -79 1167 -4 223 46 506 172 739 327
514 344 854 818 999 1392 49 195 91 402 85 421 -11 34 -70 39 -466 39 l-387 0
-11 -82 c-25 -180 -49 -267 -106 -393 -137 -303 -444 -624 -738 -771 -94 -48
-252 -99 -372 -120 -141 -25 -461 -25 -600 0 -229 42 -415 119 -580 243 -169
126 -357 331 -463 506 -107 174 -158 310 -175 471 -10 98 -14 110 -36 125 -22
14 -77 16 -434 19 l-409 3 7 -53z"/>
</g>
</svg>
