<?xml version="1.0" standalone="no"?>
<?xml-stylesheet type="text/css" src="../app/car/car.component.css" ?>
<!DOCTYPE svg PUBLIC "-//W3C//DTD SVG 20010904//EN"
 "http://www.w3.org/TR/2001/REC-SVG-20010904/DTD/svg10.dtd">
<svg version="1.0" xmlns="http://www.w3.org/2000/svg"
 width="800.000000pt" height="256.000000pt" viewBox="0 0 800.000000 256.000000"
 preserveAspectRatio="xMidYMid meet">

<g transform="translate(0.000000,256.000000) scale(0.100000,-0.100000)"
fill="#000000" stroke="none">
<path d="M4150 2554 c-402 -34 -336 -9 -1011 -388 l-576 -323 -819 -92 c-450
-50 -852 -99 -892 -107 -104 -22 -235 -91 -318 -167 -61 -55 -78 -65 -149 -85
-177 -50 -324 -145 -366 -237 -14 -29 -19 -64 -19 -132 l0 -93 60 0 60 0 0 73
c0 88 19 130 75 169 42 29 196 100 203 93 2 -2 -1 -20 -8 -40 -7 -20 -9 -39
-6 -42 11 -12 119 12 126 27 4 8 18 39 31 67 41 95 131 172 257 219 l65 25 -7
-43 c-11 -70 -61 -164 -115 -218 -88 -88 -257 -150 -406 -150 -89 0 -128 -32
-111 -88 12 -37 56 -46 169 -34 256 27 442 137 531 315 35 71 66 170 66 213 0
17 7 23 38 27 20 3 383 45 806 93 l769 86 561 316 c309 173 576 321 595 329
97 41 318 63 636 64 437 0 840 -59 1365 -200 488 -132 1117 -362 1545 -566
l90 -43 -162 -1 c-162 -1 -163 -1 -179 -26 -23 -35 -4 -108 48 -185 114 -171
344 -269 691 -296 l87 -7 0 -234 c0 -178 -3 -235 -12 -238 -21 -8 -859 -185
-874 -185 -11 0 -14 19 -14 83 -1 168 -38 315 -112 442 -53 91 -192 230 -283
283 -213 125 -478 142 -707 46 -181 -75 -346 -241 -422 -422 -47 -111 -57
-175 -63 -385 l-6 -197 -386 0 -387 0 -52 -60 -53 -60 483 0 c402 0 487 2 504
14 18 13 19 32 25 268 6 239 7 257 32 326 72 201 220 348 422 419 72 25 94 28
210 28 110 0 141 -4 200 -24 102 -34 200 -95 274 -171 77 -76 122 -149 159
-252 23 -66 26 -92 31 -260 7 -209 11 -223 73 -220 18 1 262 51 542 111 393
84 513 113 523 127 17 23 19 644 3 675 -10 17 -22 19 -120 19 -271 0 -495 67
-615 184 -30 30 -55 59 -55 65 0 8 67 11 214 11 l215 0 73 -100 73 -100 78 0
78 0 -62 83 c-33 45 -85 116 -116 158 l-55 77 -151 72 c-949 455 -1901 753
-2697 845 -127 15 -599 28 -700 19z"/>
<path d="M4050 2359 c-221 -19 -210 -15 -695 -286 -242 -135 -455 -257 -472
-270 l-33 -24 -2 -737 -3 -737 -177 -3 -178 -2 0 157 c0 184 -10 266 -46 372
-38 113 -96 205 -193 302 -97 97 -189 155 -301 193 -297 98 -605 23 -821 -201
-153 -159 -214 -310 -226 -562 l-6 -134 -126 6 c-212 11 -468 63 -598 122
l-53 24 0 80 0 81 235 0 236 0 24 25 c31 31 31 49 0 80 l-24 25 -296 0 -295 0
0 -178 c0 -207 -7 -191 110 -246 180 -84 511 -146 791 -146 128 0 123 -10 130
222 5 162 10 203 28 258 69 201 223 355 426 427 72 25 94 28 210 28 110 0 141
-4 200 -24 102 -34 200 -95 274 -171 76 -76 122 -148 159 -252 25 -70 27 -83
29 -303 2 -126 6 -240 8 -252 13 -56 -53 -53 1050 -53 l1014 0 116 136 c378
442 613 784 669 973 42 143 -2 319 -109 439 -29 32 -45 58 -41 67 5 13 -108
15 -952 15 -801 1 -954 3 -939 14 9 7 163 95 342 196 306 171 330 183 407 196
197 34 584 41 843 14 160 -16 272 -32 284 -39 7 -5 -4 -52 -39 -156 -28 -82
-50 -151 -50 -153 0 -1 30 -2 67 0 l67 3 44 140 c24 77 46 142 48 144 13 14
601 -133 850 -213 137 -45 174 -65 174 -99 0 -40 -24 -42 -562 -45 -285 -2
-518 -7 -518 -11 0 -4 9 -16 20 -26 12 -10 30 -34 41 -52 l21 -33 472 0 c537
0 548 1 609 69 59 65 58 142 0 212 -37 43 -79 62 -280 123 -464 141 -865 225
-1247 261 -171 16 -553 18 -716 4z m956 -706 c47 -46 82 -125 96 -209 9 -58 7
-74 -12 -135 -50 -155 -283 -491 -601 -867 l-121 -142 -696 2 -697 3 -3 693
-2 692 1000 0 999 0 37 -37z"/>
<path d="M4760 1315 l0 -65 90 0 90 0 0 65 0 65 -90 0 -90 0 0 -65z"/>
<path d="M1575 1133 c-201 -43 -373 -205 -429 -404 -8 -29 -16 -70 -18 -89
l-3 -35 99 0 99 0 12 50 c33 148 147 256 300 284 189 35 392 -105 423 -293 l8
-41 93 -3 c52 -1 98 1 102 5 15 15 -20 147 -61 229 -74 151 -222 263 -393 298
-92 19 -140 19 -232 -1z"/>
<path d="M6070 1134 c-36 -7 -101 -32 -146 -54 -163 -80 -291 -264 -306 -440
l-3 -35 99 0 99 0 12 50 c33 148 147 256 300 284 189 35 392 -105 423 -293 l8
-41 93 -3 c52 -1 98 1 102 5 15 15 -20 147 -61 229 -74 151 -222 263 -393 298
-91 19 -140 19 -227 0z"/>
<path d="M1651 798 c-88 -15 -160 -87 -180 -180 -31 -140 77 -272 224 -272
130 0 228 98 228 229 1 147 -124 249 -272 223z"/>
<path d="M6141 798 c-179 -31 -248 -266 -114 -389 48 -45 93 -63 158 -63 130
0 228 98 228 229 1 147 -124 249 -272 223z"/>
<path d="M1124 518 c22 -107 32 -141 57 -193 63 -134 192 -247 336 -296 90
-31 259 -34 343 -5 73 24 154 69 212 118 92 77 174 232 192 361 l5 37 -105 0
c-104 0 -104 0 -104 -25 0 -98 -113 -242 -225 -285 -82 -32 -197 -32 -277 -1
-109 42 -211 165 -225 270 l-6 41 -104 0 c-102 0 -103 0 -99 -22z"/>
<path d="M5622 485 c25 -161 110 -295 244 -384 109 -73 185 -96 319 -96 115 0
170 13 266 61 154 77 278 256 303 437 l5 37 -105 0 c-104 0 -104 0 -104 -25 0
-98 -113 -242 -225 -285 -83 -32 -197 -32 -280 0 -105 41 -208 166 -222 270
l-6 40 -102 0 -102 0 9 -55z"/>
</g>
</svg>
